<svg width="180" height="48" viewBox="0 0 180 48" fill="none" xmlns="http://www.w3.org/2000/svg">
<path d="M137.774 5.5H139.171C140.272 5.56625 141.228 5.68429 142.037 5.85412C146.14 6.71774 148.72 9.66829 149.992 13.5245C150 13.5465 150.002 13.5698 150 13.5929C149.997 13.616 149.99 13.6383 149.979 13.6584C149.967 13.6786 149.952 13.6961 149.933 13.71C149.915 13.7238 149.893 13.7335 149.871 13.7386L142.986 15.3021C142.937 15.3133 142.906 15.2946 142.892 15.2461C142.316 13.2156 141.105 12.0492 139.258 11.7468C136.481 11.2933 134.247 12.952 133.694 15.7458C133.209 18.2106 133.228 21.2662 134.06 23.5897C134.851 25.7942 137.29 26.5024 139.411 26.0811C141.902 25.587 142.578 23.4049 143.202 21.29C143.208 21.2703 143.218 21.252 143.231 21.2361C143.244 21.2202 143.26 21.207 143.278 21.1973C143.296 21.1877 143.315 21.1818 143.336 21.1799C143.356 21.178 143.376 21.1802 143.396 21.1864C145.507 21.8498 147.634 22.5058 149.777 23.1544C150.116 23.2565 150.275 23.4091 150.169 23.787C148.87 28.4718 145.991 31.5763 141.078 32.2216C138.216 32.5967 135.478 32.384 132.863 31.5833C131.71 31.2306 130.595 30.5578 129.519 29.565C125.752 26.0881 124.91 21.2788 125.452 16.4176C126.212 9.57452 130.948 5.55039 137.774 5.5Z" fill="#002349"/>
<path d="M165.349 5.5H167.059C168.013 5.55879 168.956 5.67683 169.888 5.85412C174.825 6.79332 178.426 10.5949 179.136 15.568C179.518 18.2536 179.461 20.7889 178.962 23.174C178.055 27.5242 174.746 30.9969 170.372 31.9291C167.663 32.5067 164.95 32.5258 162.233 31.9864C154.185 30.3894 151.845 22.2642 153.202 15.1663C154.069 10.6397 157.352 7.06066 161.841 5.9619C162.862 5.71275 164.031 5.55879 165.349 5.5ZM161.984 13.9318C160.754 15.9949 160.751 19.0827 161.08 21.3782C161.434 23.8556 162.652 25.741 165.273 26.1385C167.858 26.5304 170.168 25.3855 170.85 22.7457C171.671 19.5669 171.978 13.6336 168.185 12.1402C165.955 11.2611 163.269 11.7748 161.984 13.9318Z" fill="#002349"/>
<path d="M13.5083 31.9529C13.4786 31.9529 13.4494 31.9458 13.4231 31.9321C13.3968 31.9184 13.3742 31.8985 13.3572 31.8741C13.3403 31.8498 13.3296 31.8217 13.3259 31.7922C13.3222 31.7628 13.3257 31.7329 13.3361 31.7051C16.3343 23.6083 19.3376 15.4994 22.346 7.37841C22.5653 6.78587 22.75 6.3249 22.9003 5.99551C22.9227 5.94512 22.9618 5.91992 23.0178 5.91992H31.4314C31.4837 5.91992 31.5233 5.94232 31.5504 5.98711C31.6558 6.15974 31.7515 6.36129 31.8373 6.59178C34.9269 14.9489 38.0221 23.3069 41.1229 31.6659C41.1344 31.6971 41.1383 31.7306 41.1342 31.7635C41.1301 31.7965 41.1181 31.8279 41.0992 31.8552C41.0804 31.8824 41.0552 31.9046 41.026 31.92C40.9967 31.9353 40.9642 31.9432 40.9311 31.9431L33.0747 31.9585C32.9861 31.9589 32.8998 31.9306 32.8286 31.8778C32.7575 31.8251 32.7053 31.7508 32.6799 31.6659L31.5028 27.73C31.4931 27.6969 31.4729 27.6678 31.4451 27.6472C31.4174 27.6265 31.3836 27.6153 31.3488 27.6152H22.8247C22.778 27.6152 22.7482 27.6376 22.7351 27.6824L21.5594 31.7261C21.5405 31.7919 21.5005 31.8498 21.4454 31.8909C21.3904 31.9321 21.3233 31.9543 21.2542 31.9543L13.5083 31.9529ZM24.5379 21.7757C24.5344 21.788 24.5339 21.8009 24.5363 21.8135C24.5386 21.826 24.5439 21.8379 24.5516 21.848C24.5594 21.8582 24.5694 21.8665 24.5808 21.8721C24.5923 21.8778 24.6049 21.8807 24.6177 21.8807L29.686 21.8723C29.6989 21.8724 29.7117 21.8694 29.7233 21.8637C29.7349 21.858 29.745 21.8496 29.7528 21.8392C29.7605 21.8289 29.7657 21.8168 29.768 21.8041C29.7703 21.7914 29.7695 21.7783 29.7658 21.7659L27.2169 13.3579C27.2118 13.3409 27.2014 13.326 27.1871 13.3154C27.1729 13.3048 27.1556 13.2991 27.1378 13.2991C27.1201 13.2991 27.1028 13.3048 27.0886 13.3154C27.0743 13.326 27.0639 13.3409 27.0588 13.3579L24.5379 21.7757Z" fill="#002349"/>
<path d="M43.6531 5.9277L51.2464 5.9165C51.3159 5.9165 51.3824 5.94408 51.4315 5.99317C51.4806 6.04225 51.5082 6.10883 51.5082 6.17825V25.1133C51.5082 25.1828 51.5358 25.2493 51.5849 25.2984C51.6339 25.3475 51.7005 25.3751 51.7699 25.3751H63.568C63.6374 25.3751 63.704 25.4027 63.7531 25.4517C63.8021 25.5008 63.8297 25.5674 63.8297 25.6368L63.8171 31.6905C63.8171 31.7599 63.7895 31.8265 63.7405 31.8756C63.6914 31.9247 63.6248 31.9523 63.5554 31.9523L43.6517 31.955C43.5823 31.955 43.5157 31.9275 43.4666 31.8784C43.4175 31.8293 43.39 31.7627 43.39 31.6933L43.3914 6.18944C43.3914 6.12003 43.4189 6.05345 43.468 6.00436C43.5171 5.95528 43.5837 5.9277 43.6531 5.9277Z" fill="#002349"/>
<path d="M75.2335 15.5778H87.1309C87.1866 15.5778 87.24 15.5999 87.2794 15.6393C87.3187 15.6787 87.3409 15.7321 87.3409 15.7878V20.7567C87.3409 20.8309 87.3114 20.9022 87.2589 20.9546C87.2064 21.0071 87.1352 21.0366 87.0609 21.0366H75.2335C75.1868 21.0366 75.1635 21.06 75.1635 21.1066V25.8656C75.1635 25.8842 75.1709 25.902 75.184 25.9151C75.1971 25.9282 75.2149 25.9356 75.2335 25.9356H88.4928C88.5589 25.9356 88.6223 25.9617 88.669 26.0081C88.7157 26.0546 88.742 26.1176 88.742 26.1833C88.7429 27.8854 88.7378 29.6107 88.7266 31.3594C88.7256 31.5404 88.7149 31.6697 88.6944 31.7471C88.658 31.8843 88.5689 31.9529 88.427 31.9529L67.3266 31.9543C67.2919 31.9542 67.2576 31.9467 67.226 31.9323C67.1944 31.9179 67.1663 31.8969 67.1436 31.8707C67.1209 31.8446 67.1041 31.8139 67.0944 31.7807C67.0847 31.7475 67.0822 31.7127 67.0873 31.6785C67.1083 31.526 67.0467 31.3356 67.0467 31.1942C67.0448 22.9052 67.0443 14.599 67.0453 6.27545C67.0453 6.18153 67.0827 6.09146 67.1494 6.02505C67.2161 5.95863 67.3065 5.92133 67.4008 5.92133L88.0407 5.91993C88.0774 5.91974 88.1138 5.92685 88.1477 5.94083C88.1817 5.95482 88.2125 5.97541 88.2386 6.00142C88.2646 6.02743 88.2852 6.05836 88.2993 6.09241C88.3134 6.12647 88.3206 6.16298 88.3206 6.19986C88.3206 7.77592 88.3202 9.32725 88.3192 10.8539C88.3192 11.1105 88.3043 11.3125 88.2745 11.4599C88.2483 11.5906 88.1685 11.6559 88.0351 11.6559L75.2335 11.6601C75.1868 11.6601 75.1635 11.6829 75.1635 11.7287V15.5078C75.1635 15.5545 75.1868 15.5778 75.2335 15.5778Z" fill="#002349"/>
<path d="M99.2375 13.0396V31.6737C99.2375 31.748 99.208 31.8192 99.1555 31.8717C99.103 31.9242 99.0318 31.9536 98.9576 31.9536L93.0033 31.9523C92.7737 31.9523 92.6589 31.8375 92.6589 31.6079V6.20204C92.6589 6.12891 92.6881 6.05878 92.7401 6.00706C92.7921 5.95535 92.8626 5.9263 92.9361 5.9263L102.902 5.9165C102.963 5.91643 103.023 5.93537 103.073 5.97072C103.123 6.00606 103.161 6.05607 103.182 6.11386C103.239 6.27343 103.296 6.46612 103.354 6.69194C104.521 11.2876 105.689 15.8833 106.856 20.4789C106.891 20.6161 106.924 20.7836 106.955 20.9814C106.958 20.9994 106.966 21.0162 106.977 21.0302C106.989 21.0442 107.004 21.0549 107.021 21.0611C107.038 21.0672 107.056 21.0687 107.074 21.0652C107.092 21.0618 107.108 21.0537 107.122 21.0416C107.234 20.9436 107.219 20.7771 107.245 20.6693C108.447 15.831 109.661 10.9703 110.887 6.08727C110.899 6.03935 110.927 5.99678 110.966 5.96634C111.005 5.9359 111.053 5.91934 111.103 5.9193H121.143C121.376 5.9193 121.493 6.03594 121.493 6.26923V31.5687C121.493 31.8253 121.364 31.9536 121.108 31.9536H115.054C114.98 31.9536 114.909 31.9242 114.856 31.8717C114.804 31.8192 114.774 31.748 114.774 31.6737V13.5434C114.774 13.5315 114.77 13.52 114.762 13.5111C114.754 13.5022 114.743 13.4966 114.731 13.4952C114.719 13.4938 114.707 13.4968 114.697 13.5037C114.687 13.5105 114.68 13.5206 114.678 13.5322L110.07 31.8207C110.06 31.8586 110.038 31.8923 110.008 31.9163C109.977 31.9404 109.939 31.9535 109.9 31.9536H104.281C104.221 31.9536 104.162 31.9336 104.115 31.8968C104.068 31.86 104.035 31.8086 104.02 31.7507L99.2907 13.0326C99.2902 13.0291 99.2891 13.0257 99.2873 13.0226C99.2856 13.0196 99.2832 13.0169 99.2804 13.0148C99.2776 13.0126 99.2744 13.0111 99.271 13.0101C99.2676 13.0092 99.2641 13.009 99.2606 13.0095C99.2571 13.0099 99.2537 13.0111 99.2507 13.0128C99.2476 13.0146 99.245 13.0169 99.2428 13.0197C99.2407 13.0225 99.2391 13.0257 99.2382 13.0291C99.2373 13.0325 99.237 13.0361 99.2375 13.0396Z" fill="#002349"/>
<path d="M29.2291 40.5721C29.9346 41.8234 31.3819 42.0712 32.6458 41.5155C32.8627 41.4203 33.1567 41.2076 33.4324 41.0592C33.4442 41.0531 33.4571 41.0498 33.4704 41.0494C33.4836 41.0491 33.4967 41.0518 33.5088 41.0574C33.5208 41.0629 33.5314 41.0711 33.5397 41.0814C33.5481 41.0917 33.554 41.1037 33.557 41.1166C33.7054 41.7642 33.4478 42.1972 32.7844 42.4155C27.0372 44.3135 26.0546 35.6382 31.4938 35.7866C32.3435 35.8103 33.9321 36.1393 33.5276 37.35C33.5224 37.3658 33.5134 37.3801 33.5015 37.3917C33.4896 37.4033 33.4751 37.4119 33.4592 37.4167C33.4432 37.4215 33.4264 37.4224 33.41 37.4193C33.3937 37.4163 33.3783 37.4093 33.3652 37.399C32.5347 36.7365 31.5867 36.5354 30.5211 36.7957C28.9548 37.1792 28.5377 39.3446 29.2291 40.5721Z" fill="#002349"/>
<path d="M48.7066 42.6953C48.2584 42.6859 47.8165 42.587 47.406 42.4043C46.9956 42.2216 46.6246 41.9586 46.3144 41.6303C46.0042 41.3021 45.7608 40.915 45.5981 40.4912C45.4354 40.0674 45.3565 39.6151 45.3661 39.1603C45.3756 38.7055 45.4733 38.2569 45.6536 37.8403C45.834 37.4237 46.0934 37.0472 46.417 36.7322C46.7407 36.4172 47.1223 36.17 47.5401 36.0046C47.9578 35.8392 48.4035 35.7589 48.8517 35.7683C49.2999 35.7777 49.7419 35.8766 50.1524 36.0593C50.5628 36.242 50.9337 36.505 51.2439 36.8333C51.5541 37.1616 51.7975 37.5486 51.9603 37.9724C52.123 38.3962 52.2018 38.8485 52.1923 39.3033C52.1828 39.7581 52.0851 40.2067 51.9047 40.6233C51.7244 41.0399 51.465 41.4164 51.1413 41.7314C50.8177 42.0464 50.436 42.2936 50.0183 42.459C49.6006 42.6244 49.1549 42.7047 48.7066 42.6953ZM51.0999 38.8916C51.1107 38.3278 50.8971 37.7828 50.5061 37.3765C50.1151 36.9702 49.5787 36.7358 49.0149 36.725L48.6203 36.7174C48.3411 36.7121 48.0637 36.7617 47.8037 36.8636C47.5437 36.9655 47.3064 37.1176 47.1052 37.3112C46.904 37.5048 46.7429 37.7361 46.6312 37.992C46.5194 38.2478 46.4591 38.5232 46.4537 38.8024L46.4389 39.5748C46.4281 40.1386 46.6417 40.6836 47.0327 41.0899C47.4237 41.4962 47.9601 41.7306 48.5238 41.7414L48.9185 41.749C49.1976 41.7544 49.4751 41.7047 49.7351 41.6028C49.995 41.5009 50.2324 41.3488 50.4336 41.1552C50.6347 40.9616 50.7958 40.7303 50.9076 40.4744C51.0194 40.2186 51.0797 39.9432 51.085 39.6641L51.0999 38.8916Z" fill="#002349"/>
<path d="M73.7424 42.3247C70.9486 43.5396 67.9238 41.4316 68.7231 38.3173C69.1304 36.7259 70.5273 35.7223 72.1677 35.8007C72.9291 35.8371 74.7543 36.0806 74.2519 37.3543C74.2458 37.3697 74.2363 37.3834 74.224 37.3944C74.2117 37.4054 74.1969 37.4133 74.181 37.4176C74.165 37.4218 74.1483 37.4222 74.1322 37.4187C74.116 37.4153 74.1009 37.4081 74.0881 37.3977C72.8564 36.4067 70.5945 36.3102 69.889 38.0178C69.5167 38.9164 69.5573 40.0683 70.1172 40.8536C71.0046 42.0993 72.9515 42.0027 74.0419 41.1069C74.1725 40.9987 74.2561 41.0276 74.2925 41.1937C74.4119 41.7358 74.2285 42.1128 73.7424 42.3247Z" fill="#002349"/>
<path d="M100.899 42.5598C98.5036 43.1925 96.3901 41.5506 96.4965 39.0396C96.5776 37.1416 98.0109 35.7573 99.9173 35.7881C100.71 35.8007 102.665 36.0946 102.088 37.3768C102.083 37.3877 102.076 37.3973 102.067 37.405C102.058 37.4127 102.047 37.4181 102.035 37.421C102.024 37.4238 102.012 37.4239 102 37.4214C101.988 37.4188 101.977 37.4136 101.968 37.4061C101.147 36.7511 100.202 36.5463 99.1349 36.7917C97.1655 37.2438 96.971 40.4169 98.5722 41.4219C99.6038 42.0685 101.031 41.8138 101.972 41.0594C101.986 41.0481 102.003 41.0406 102.021 41.0377C102.039 41.0347 102.057 41.0363 102.074 41.0423C102.091 41.0484 102.106 41.0587 102.117 41.0722C102.129 41.0857 102.137 41.102 102.14 41.1195C102.337 42.0951 101.717 42.3443 100.899 42.5598Z" fill="#002349"/>
<path d="M121.402 41.0822C122.406 43.1286 115.529 43.869 115.796 38.9631C115.898 37.0833 117.435 35.7158 119.315 35.8012C120.086 35.8361 121.937 36.0699 121.412 37.3646C121.406 37.3777 121.398 37.3894 121.387 37.3988C121.377 37.4081 121.364 37.4148 121.35 37.4183C121.336 37.4219 121.322 37.4221 121.308 37.4191C121.294 37.4161 121.281 37.4099 121.27 37.401C119.833 36.2477 117.369 36.3722 116.906 38.4998C116.268 41.4321 119.146 42.7212 121.291 41.0556C121.339 41.0192 121.376 41.0281 121.402 41.0822Z" fill="#002349"/>
<path d="M125.416 42.6954C124.511 42.678 123.649 42.2964 123.022 41.6346C122.394 40.9728 122.051 40.0849 122.069 39.1663C122.087 38.2477 122.463 37.3736 123.116 36.7363C123.768 36.0991 124.644 35.7508 125.549 35.7682C126.454 35.7856 127.315 36.1672 127.943 36.829C128.571 37.4908 128.913 38.3787 128.896 39.2973C128.878 40.2159 128.501 41.09 127.849 41.7273C127.196 42.3645 126.321 42.7128 125.416 42.6954ZM125.474 41.8058C125.789 41.8064 126.101 41.7404 126.393 41.6116C126.684 41.4828 126.949 41.2938 127.172 41.0553C127.396 40.8168 127.573 40.5335 127.694 40.2216C127.815 39.9097 127.878 39.5752 127.879 39.2374C127.879 38.8995 127.818 38.5649 127.698 38.2526C127.578 37.9402 127.401 37.6563 127.179 37.417C126.956 37.1778 126.692 36.9878 126.401 36.858C126.11 36.7282 125.798 36.6611 125.483 36.6606C125.167 36.66 124.855 36.726 124.564 36.8548C124.272 36.9836 124.007 37.1726 123.784 37.4111C123.561 37.6496 123.383 37.9329 123.262 38.2448C123.141 38.5567 123.078 38.8912 123.078 39.229C123.077 39.5669 123.139 39.9015 123.259 40.2138C123.379 40.5262 123.555 40.8101 123.778 41.0494C124 41.2887 124.264 41.4786 124.555 41.6084C124.846 41.7382 125.158 41.8053 125.474 41.8058Z" fill="#002349"/>
<path d="M152.994 40.5901C152.496 39.4311 152.691 38.0076 153.504 37.0223C154.392 35.9436 155.646 35.581 157.266 35.9347C157.966 36.0873 158.699 36.5016 158.375 37.3498C158.369 37.3646 158.36 37.3779 158.348 37.3886C158.337 37.3993 158.323 37.407 158.307 37.4112C158.292 37.4155 158.276 37.416 158.26 37.4129C158.245 37.4098 158.23 37.403 158.218 37.3932C156.934 36.37 154.591 36.3056 153.95 38.163C153.123 40.5593 154.969 42.4307 157.371 41.5727C157.665 41.4677 157.965 41.2185 158.286 41.0632C158.299 41.0574 158.312 41.0544 158.325 41.0543C158.339 41.0543 158.352 41.0573 158.364 41.0631C158.376 41.0689 158.387 41.0773 158.395 41.0877C158.403 41.0981 158.409 41.1103 158.412 41.1234C158.557 41.7523 158.3 42.1792 157.641 42.4041C155.704 43.0661 153.813 42.4979 152.994 40.5901Z" fill="#002349"/>
<path d="M178.276 40.183L177.215 40.1662C177.17 40.1653 177.141 40.1438 177.127 40.1018C177.047 39.8471 177.046 39.5932 177.123 39.3404C177.131 39.314 177.147 39.2908 177.169 39.2742C177.192 39.2576 177.219 39.2484 177.247 39.248L179.214 39.2354C179.265 39.2354 179.313 39.2556 179.349 39.2916C179.385 39.3275 179.405 39.3763 179.405 39.4271V41.7478C179.406 41.7962 179.393 41.8438 179.37 41.8859C179.346 41.9281 179.312 41.9634 179.271 41.9886C176.581 43.629 173.075 42.1804 173.5 38.7105C173.717 36.9385 175.241 35.6676 177.055 35.7977C177.765 35.8481 179.575 36.1911 179.064 37.315C179.056 37.3328 179.044 37.3486 179.029 37.3611C179.014 37.3737 178.996 37.3828 178.978 37.3878C178.959 37.3928 178.939 37.3934 178.92 37.3898C178.901 37.3862 178.882 37.3783 178.867 37.3668C176.531 35.676 173.933 37.1932 174.582 40.071C174.959 41.7338 176.899 42.1188 178.269 41.5211C178.288 41.5132 178.304 41.4999 178.315 41.4827C178.327 41.4656 178.333 41.4454 178.333 41.4245L178.364 40.274C178.364 40.2623 178.362 40.2506 178.358 40.2397C178.354 40.2288 178.348 40.2188 178.339 40.2103C178.331 40.2018 178.321 40.1951 178.31 40.1904C178.3 40.1857 178.288 40.1832 178.276 40.183Z" fill="#002349"/>
<path d="M81.4531 42.5278C81.4285 42.526 81.4046 42.5184 81.3836 42.5055C81.3625 42.4927 81.3449 42.475 81.3321 42.454C81.3194 42.433 81.3119 42.4093 81.3103 42.3849C81.3087 42.3605 81.313 42.3361 81.3229 42.3137C82.1254 40.4521 82.9181 38.5756 83.701 36.6841C84.0901 35.7449 84.4946 35.5252 84.9551 36.6113C85.7473 38.4785 86.5377 40.3429 87.3262 42.2045C87.3471 42.2531 87.3496 42.3077 87.3331 42.3579C87.3166 42.4082 87.2823 42.4507 87.2366 42.4775C86.8279 42.7196 86.4962 42.6356 86.296 42.1849C86.0907 41.7212 85.8873 41.2597 85.6858 40.8006C85.6774 40.7819 85.664 40.766 85.6471 40.7548C85.6302 40.7436 85.6106 40.7377 85.5906 40.7376H83.0655C83.048 40.7377 83.0308 40.7427 83.0162 40.7521C83.0015 40.7616 82.99 40.775 82.9829 40.7908L82.2257 42.4984C82.2024 42.5498 82.1632 42.5736 82.1081 42.5698L81.4531 42.5278ZM84.363 37.5869C84.3601 37.5786 84.3546 37.5714 84.3475 37.5663C84.3403 37.5611 84.3318 37.5583 84.3229 37.5581C84.3141 37.558 84.3055 37.5605 84.2981 37.5654C84.2908 37.5703 84.2851 37.5773 84.2819 37.5855L83.3693 39.7676C83.3665 39.7743 83.3654 39.7815 83.3661 39.7887C83.3668 39.7959 83.3693 39.8027 83.3733 39.8087C83.3773 39.8147 83.3828 39.8196 83.3891 39.8229C83.3955 39.8262 83.4026 39.8279 83.4098 39.8278H85.2309C85.2381 39.8279 85.2452 39.8262 85.2516 39.8229C85.2579 39.8196 85.2634 39.8147 85.2674 39.8087C85.2714 39.8027 85.2739 39.7959 85.2746 39.7887C85.2753 39.7815 85.2742 39.7743 85.2714 39.7676L84.363 37.5869Z" fill="#002349"/>
<path d="M104.246 40.8195L103.528 42.4459C103.504 42.501 103.462 42.535 103.403 42.5481C103.155 42.6032 102.914 42.5789 102.68 42.4753C102.663 42.468 102.647 42.4574 102.634 42.4442C102.622 42.4309 102.612 42.4153 102.605 42.3981C102.598 42.3809 102.595 42.3626 102.595 42.3441C102.595 42.3257 102.599 42.3075 102.607 42.2906C103.447 40.3282 104.283 38.3541 105.116 36.3684C105.51 35.4278 105.963 35.9933 106.207 36.5658C107.004 38.4358 107.804 40.3179 108.607 42.2122C108.619 42.2392 108.625 42.2682 108.625 42.2975C108.625 42.3268 108.619 42.3558 108.608 42.3828C108.597 42.4099 108.581 42.4345 108.56 42.4551C108.54 42.4758 108.515 42.4922 108.488 42.5033C108.063 42.6839 107.777 42.6447 107.576 42.1912C107.37 41.7246 107.165 41.2608 106.961 40.7999C106.953 40.7811 106.939 40.7651 106.922 40.7539C106.905 40.7427 106.885 40.7368 106.865 40.7369H104.372C104.345 40.7369 104.319 40.7447 104.297 40.7593C104.274 40.774 104.257 40.7949 104.246 40.8195ZM105.639 37.5862C105.636 37.5779 105.63 37.5707 105.623 37.5655C105.616 37.5604 105.607 37.5576 105.598 37.5574C105.59 37.5573 105.581 37.5598 105.574 37.5647C105.566 37.5696 105.561 37.5766 105.557 37.5848L104.645 39.7669C104.642 39.7735 104.641 39.7808 104.642 39.7879C104.642 39.7951 104.645 39.802 104.649 39.808C104.653 39.8139 104.658 39.8188 104.665 39.8222C104.671 39.8255 104.678 39.8272 104.685 39.8271H106.506C106.514 39.8272 106.521 39.8255 106.527 39.8222C106.533 39.8188 106.539 39.8139 106.543 39.808C106.547 39.802 106.549 39.7951 106.55 39.7879C106.551 39.7808 106.55 39.7735 106.547 39.7669L105.639 37.5862Z" fill="#002349"/>
<path d="M146.567 42.2969C146.575 42.3089 146.586 42.3186 146.599 42.3248C146.612 42.3311 146.627 42.3337 146.641 42.3324C146.655 42.3311 146.669 42.326 146.681 42.3175C146.692 42.309 146.702 42.2975 146.707 42.2843C147.564 40.265 148.422 38.2359 149.283 36.197C149.392 35.9376 149.554 35.8359 149.768 35.8919C150.068 35.9702 150.258 36.4195 150.365 36.6771C151.114 38.4976 151.881 40.3107 152.666 42.1163C152.718 42.2358 152.7 42.3445 152.613 42.4424C151.848 43.2963 151.227 41.2135 151.062 40.809C151.042 40.7614 151.007 40.7376 150.955 40.7376H148.443C148.421 40.7376 148.4 40.7438 148.382 40.7554C148.364 40.7671 148.349 40.7838 148.341 40.8034L147.611 42.4578C147.591 42.5054 147.555 42.5297 147.502 42.5306L145.653 42.5656C145.635 42.5661 145.618 42.5618 145.602 42.5533C145.586 42.5447 145.572 42.5321 145.562 42.5166L143.883 39.972C143.851 39.9235 143.806 39.8992 143.748 39.8992L142.962 39.8978C142.903 39.8969 142.874 39.9258 142.874 39.9846V42.3641C142.874 42.4153 142.853 42.4644 142.817 42.5006C142.781 42.5369 142.733 42.5572 142.682 42.5572H142.015C141.965 42.5572 141.916 42.5369 141.88 42.5006C141.844 42.4644 141.824 42.4153 141.824 42.3641V36.1158C141.824 36.0615 141.845 36.0094 141.883 35.9708C141.922 35.9323 141.974 35.9104 142.028 35.9101C143.419 35.8961 145.421 35.5825 145.956 37.2594C146.285 38.2909 145.832 39.2413 144.881 39.7172C144.838 39.7387 144.83 39.769 144.857 39.8082L146.567 42.2969ZM142.875 36.9318L142.869 38.8578C142.869 38.8839 142.88 38.909 142.898 38.9276C142.916 38.9462 142.941 38.9568 142.967 38.9572L144.08 38.9614C144.211 38.962 144.34 38.9377 144.461 38.89C144.581 38.8424 144.691 38.7722 144.784 38.6836C144.877 38.5949 144.95 38.4895 145.001 38.3734C145.051 38.2573 145.077 38.1327 145.078 38.0068V37.7996C145.079 37.5454 144.975 37.3011 144.79 37.1205C144.604 36.9399 144.352 36.8378 144.088 36.8367L142.976 36.8339C142.963 36.8337 142.95 36.8361 142.938 36.8409C142.925 36.8457 142.914 36.8529 142.905 36.862C142.896 36.8711 142.888 36.8819 142.883 36.8939C142.878 36.9059 142.875 36.9188 142.875 36.9318ZM148.748 39.7648C148.745 39.7717 148.744 39.7792 148.745 39.7866C148.746 39.794 148.748 39.8011 148.753 39.8072C148.757 39.8134 148.762 39.8185 148.769 39.8221C148.775 39.8257 148.783 39.8276 148.79 39.8278H150.604C150.611 39.8276 150.619 39.8257 150.625 39.8221C150.632 39.8185 150.637 39.8134 150.641 39.8072C150.646 39.8011 150.648 39.794 150.649 39.7866C150.65 39.7792 150.649 39.7717 150.646 39.7648L149.739 37.6135C149.735 37.6054 149.729 37.5986 149.722 37.5939C149.715 37.5891 149.706 37.5865 149.697 37.5865C149.688 37.5865 149.68 37.5891 149.672 37.5939C149.665 37.5986 149.659 37.6054 149.655 37.6135L148.748 39.7648Z" fill="#002349"/>
<path d="M14.8716 38.5681H17.0285C17.0547 38.5682 17.0804 38.5759 17.1022 38.5903C17.1241 38.6047 17.1413 38.6252 17.1517 38.6493C17.2674 38.9152 17.2613 39.1751 17.1335 39.4289C17.1208 39.4542 17.1013 39.4755 17.0774 39.4903C17.0534 39.5051 17.0258 39.513 16.9977 39.5129H14.8716C14.8249 39.5129 14.8016 39.5362 14.8016 39.5829V41.5383C14.8016 41.5877 14.8263 41.6125 14.8758 41.6125H17.5562C17.5789 41.6125 17.6011 41.6185 17.6207 41.6298C17.6404 41.6411 17.6567 41.6573 17.6682 41.6768C17.8156 41.9278 17.831 42.1905 17.7144 42.4649C17.7028 42.4922 17.6834 42.5156 17.6585 42.532C17.6336 42.5484 17.6044 42.5572 17.5744 42.5572H13.9618C13.9061 42.5572 13.8527 42.5351 13.8133 42.4958C13.774 42.4564 13.7518 42.403 13.7518 42.3473V36.1186C13.7518 36.063 13.774 36.0096 13.8133 35.9702C13.8527 35.9308 13.9061 35.9087 13.9618 35.9087H17.573C17.6029 35.9087 17.632 35.9173 17.6567 35.9335C17.6814 35.9497 17.7005 35.9728 17.7116 35.9997C17.8235 36.2637 17.8133 36.5199 17.6808 36.7681C17.6669 36.7939 17.6462 36.8154 17.6208 36.8304C17.5954 36.8455 17.5663 36.8534 17.5366 36.8535H14.8716C14.8249 36.8535 14.8016 36.8768 14.8016 36.9235V38.4981C14.8016 38.5448 14.8249 38.5681 14.8716 38.5681Z" fill="#002349"/>
<path d="M19.914 41.6125H22.5916C22.6184 41.6125 22.6447 41.6201 22.6675 41.6344C22.6902 41.6488 22.7086 41.6693 22.7204 41.6936C22.8482 41.9549 22.844 42.2199 22.7078 42.4887C22.6845 42.5344 22.6471 42.5572 22.5958 42.5572H19C18.9443 42.5572 18.8909 42.5351 18.8515 42.4958C18.8122 42.4564 18.79 42.403 18.79 42.3473V36.1019C18.79 36.0506 18.8102 36.0015 18.8462 35.9653C18.8822 35.929 18.9309 35.9087 18.9818 35.9087H19.6481C19.6732 35.9087 19.6982 35.9137 19.7214 35.9234C19.7447 35.9331 19.7658 35.9473 19.7836 35.9653C19.8015 35.9832 19.8156 36.0045 19.8252 36.0279C19.8349 36.0514 19.8398 36.0765 19.8398 36.1019V41.5383C19.8398 41.5579 19.8476 41.5768 19.8615 41.5907C19.8755 41.6046 19.8943 41.6125 19.914 41.6125Z" fill="#002349"/>
<path d="M24.5291 38.5681H26.6916C26.7149 38.5681 26.7378 38.5728 26.7592 38.5819C26.7805 38.5909 26.7998 38.6043 26.8159 38.621C26.832 38.6377 26.8445 38.6575 26.8528 38.6792C26.861 38.7009 26.8648 38.7241 26.8638 38.7473L26.8372 39.3869C26.8361 39.4164 26.8236 39.4443 26.8022 39.4649C26.7809 39.4855 26.7523 39.4972 26.7224 39.4975L24.5249 39.5199C24.4811 39.5199 24.4591 39.5423 24.4591 39.5871V41.5425C24.4591 41.5882 24.4825 41.6111 24.5291 41.6111L27.1703 41.6139C27.2236 41.6139 27.2752 41.6321 27.3167 41.6654C27.3582 41.6987 27.387 41.7452 27.3985 41.7972C27.4508 42.0333 27.4363 42.2633 27.3551 42.4873C27.3476 42.5078 27.334 42.5255 27.3159 42.538C27.2979 42.5505 27.2764 42.5572 27.2543 42.5572H23.6193C23.5636 42.5572 23.5102 42.5351 23.4709 42.4958C23.4315 42.4564 23.4094 42.403 23.4094 42.3473V36.1536C23.4094 36.0887 23.4352 36.0264 23.4811 35.9804C23.527 35.9345 23.5893 35.9087 23.6543 35.9087H27.1717C27.2097 35.9087 27.2473 35.9166 27.282 35.9321C27.3166 35.9476 27.3477 35.9702 27.373 35.9984C27.3984 36.0267 27.4175 36.06 27.4291 36.0961C27.4407 36.1323 27.4446 36.1705 27.4405 36.2082L27.3957 36.6057C27.377 36.7681 27.2856 36.8498 27.1214 36.8507L24.5277 36.8549C24.482 36.8549 24.4591 36.8782 24.4591 36.9249V38.4981C24.4591 38.5448 24.4825 38.5681 24.5291 38.5681Z" fill="#002349"/>
<path d="M37.3364 37.0508V42.3599C37.3364 42.4122 37.3156 42.4624 37.2786 42.4994C37.2416 42.5365 37.1914 42.5572 37.1391 42.5572H36.484C36.4317 42.5572 36.3815 42.5365 36.3444 42.4994C36.3074 42.4624 36.2866 42.4122 36.2866 42.3599V37.0508C36.2866 37.0249 36.2815 36.9993 36.2716 36.9753C36.2617 36.9514 36.2472 36.9296 36.2288 36.9113C36.2105 36.893 36.1887 36.8784 36.1648 36.8685C36.1409 36.8586 36.1152 36.8535 36.0893 36.8535H34.2459C34.1938 36.8535 34.1438 36.8329 34.1068 36.7962C34.0698 36.7595 34.0489 36.7096 34.0485 36.6575L34.0471 36.1074C34.0469 36.0814 34.0519 36.0556 34.0617 36.0315C34.0716 36.0074 34.0861 35.9855 34.1044 35.967C34.1228 35.9485 34.1446 35.9339 34.1686 35.9238C34.1927 35.9138 34.2184 35.9087 34.2445 35.9087H39.3716C39.4239 35.9087 39.4741 35.9295 39.5111 35.9665C39.5481 36.0035 39.5689 36.0537 39.5689 36.106V36.6561C39.5689 36.7085 39.5481 36.7587 39.5111 36.7957C39.4741 36.8327 39.4239 36.8535 39.3716 36.8535H37.5338C37.4814 36.8535 37.4312 36.8743 37.3942 36.9113C37.3572 36.9483 37.3364 36.9985 37.3364 37.0508Z" fill="#002349"/>
<path d="M41.2556 39.9676V42.4409C41.2556 42.4677 41.2451 42.4935 41.2262 42.5126C41.2074 42.5318 41.1817 42.5427 41.1549 42.5431L40.3724 42.5613C40.3508 42.5618 40.3292 42.558 40.309 42.5501C40.2888 42.5422 40.2704 42.5303 40.2549 42.5152C40.2394 42.5001 40.227 42.482 40.2186 42.462C40.2102 42.442 40.2059 42.4206 40.2059 42.3989V36.1171C40.2059 36.0643 40.2265 36.0137 40.2634 35.976C40.3003 35.9383 40.3505 35.9166 40.4032 35.9155C41.8771 35.8833 44.2146 35.5628 44.4302 37.7127C44.5179 38.5852 44.1288 39.2547 43.2628 39.7213C43.2217 39.7437 43.2143 39.7745 43.2404 39.8137L45.0082 42.3779C45.018 42.3918 45.024 42.408 45.0257 42.4248C45.0274 42.4417 45.0248 42.4588 45.018 42.4744C45.0113 42.4899 45.0007 42.5035 44.9872 42.5138C44.9737 42.5241 44.9578 42.5308 44.941 42.5333C44.6485 42.5753 44.0494 42.7068 43.8689 42.4241C43.3491 41.6169 42.8205 40.8079 42.283 39.997C42.2623 39.9664 42.2345 39.9414 42.202 39.924C42.1696 39.9067 42.1335 39.8976 42.0969 39.8976H41.3256C41.279 39.8976 41.2556 39.921 41.2556 39.9676ZM41.2542 36.9401L41.2598 38.8605C41.26 38.8741 41.2629 38.8875 41.2683 38.9C41.2736 38.9125 41.2814 38.9238 41.2912 38.9333C41.3009 38.9428 41.3124 38.9503 41.3251 38.9553C41.3377 38.9603 41.3512 38.9628 41.3648 38.9626L42.4804 38.9598C42.7413 38.9587 42.9912 38.856 43.1749 38.6744C43.3587 38.4927 43.4613 38.247 43.4602 37.9913V37.7925C43.4596 37.6658 43.4336 37.5405 43.3837 37.4237C43.3337 37.3069 43.2608 37.2009 43.169 37.1118C43.0773 37.0226 42.9685 36.952 42.8489 36.9041C42.7293 36.8561 42.6012 36.8317 42.472 36.8323L41.3564 36.8351C41.3428 36.8353 41.3294 36.8381 41.3169 36.8435C41.3044 36.8489 41.2931 36.8567 41.2836 36.8664C41.2741 36.8762 41.2666 36.8877 41.2616 36.9003C41.2566 36.913 41.2541 36.9265 41.2542 36.9401Z" fill="#002349"/>
<path d="M57.2118 38.1167V42.3592C57.2117 42.3879 57.2057 42.4162 57.1942 42.4425C57.1826 42.4687 57.1658 42.4922 57.1447 42.5116C57.1237 42.5309 57.0988 42.5456 57.0718 42.5548C57.0448 42.564 57.0163 42.5675 56.9879 42.5649L56.4504 42.5173C56.3291 42.5071 56.2684 42.4413 56.2684 42.32L56.2656 36.1109C56.2656 36.0577 56.2894 36.0186 56.337 35.9934C56.7765 35.7652 57.1684 35.8534 57.3868 36.3279C58.1034 37.89 58.8257 39.4613 59.5535 41.0421C59.5583 41.0522 59.5658 41.0607 59.5752 41.0667C59.5846 41.0726 59.5955 41.0758 59.6067 41.0758C59.6179 41.0758 59.6288 41.0726 59.6382 41.0667C59.6476 41.0607 59.6551 41.0522 59.6599 41.0421C60.3681 39.5453 61.0666 38.036 61.7552 36.5141C61.9946 35.9836 62.2941 35.7232 62.8722 35.9612C62.8954 35.9706 62.9152 35.9869 62.9292 36.0078C62.9431 36.0288 62.9506 36.0534 62.9506 36.0787V42.4376C62.9506 42.4768 62.9324 42.5024 62.896 42.5145C62.7784 42.5565 62.6566 42.5696 62.5307 42.5537C62.5011 42.5502 62.4728 42.547 62.4504 42.5447C62.428 42.5424 62.4129 42.5412 62.4075 42.5411C62.1397 42.5906 62.0058 42.4796 62.0058 42.208C62.0067 40.868 62.0062 39.5183 62.0044 38.1587C62.0048 38.1463 62.0008 38.1341 61.9932 38.1243C61.9856 38.1145 61.9747 38.1076 61.9626 38.105C61.9505 38.1023 61.9378 38.104 61.9267 38.1097C61.9157 38.1154 61.907 38.1248 61.9022 38.1363C61.2994 39.4697 60.6905 40.813 60.0756 42.166C59.7929 42.7889 59.3422 42.7245 59.0776 42.159C58.4506 40.8181 57.8422 39.4679 57.2524 38.1083C57.2254 38.0458 57.2118 38.0486 57.2118 38.1167Z" fill="#002349"/>
<path d="M65.26 38.5681H67.3624C67.4135 38.5682 67.4631 38.5853 67.5032 38.6168C67.5433 38.6483 67.5716 38.6923 67.5835 38.7417C67.6386 38.9703 67.6222 39.1905 67.5345 39.4023C67.5208 39.4344 67.498 39.4617 67.4688 39.4808C67.4397 39.5 67.4056 39.5102 67.3708 39.5101L65.26 39.5143C65.2134 39.5143 65.19 39.5372 65.19 39.5829V41.5383C65.19 41.5877 65.2148 41.6125 65.2642 41.6125H67.9418C67.9695 41.6124 67.9965 41.6201 68.0198 41.6347C68.0431 41.6494 68.0617 41.6703 68.0734 41.695C68.191 41.9479 68.1975 42.2064 68.093 42.4705C68.0697 42.5283 68.0267 42.5572 67.9642 42.5572H64.3502C64.2945 42.5572 64.2411 42.5351 64.2018 42.4958C64.1624 42.4564 64.1403 42.403 64.1403 42.3473V36.1186C64.1403 36.063 64.1624 36.0096 64.2018 35.9702C64.2411 35.9308 64.2945 35.9087 64.3502 35.9087H67.89C67.952 35.9088 68.0119 35.9307 68.0593 35.9707C68.1067 36.0106 68.1384 36.066 68.149 36.127C68.1882 36.3491 68.1634 36.5642 68.0748 36.7723C68.0644 36.7964 68.0472 36.8169 68.0254 36.8313C68.0035 36.8457 67.9778 36.8534 67.9516 36.8535H65.26C65.2134 36.8535 65.19 36.8768 65.19 36.9235V38.4981C65.19 38.5448 65.2134 38.5681 65.26 38.5681Z" fill="#002349"/>
<path d="M76.5673 38.5681H79.4982C79.5457 38.5681 79.5913 38.5492 79.6249 38.5156C79.6585 38.482 79.6774 38.4365 79.6774 38.389V36.0879C79.6774 36.0403 79.6962 35.9948 79.7298 35.9612C79.7634 35.9276 79.809 35.9087 79.8565 35.9087H80.548C80.5955 35.9087 80.6411 35.9276 80.6747 35.9612C80.7083 35.9948 80.7271 36.0403 80.7271 36.0879V42.3781C80.7271 42.4256 80.7083 42.4712 80.6747 42.5048C80.6411 42.5384 80.5955 42.5572 80.548 42.5572H79.8565C79.809 42.5572 79.7634 42.5384 79.7298 42.5048C79.6962 42.4712 79.6774 42.4256 79.6774 42.3781V39.6921C79.6774 39.6446 79.6585 39.599 79.6249 39.5654C79.5913 39.5318 79.5457 39.5129 79.4982 39.5129H76.5673C76.5197 39.5129 76.4742 39.5318 76.4406 39.5654C76.407 39.599 76.3881 39.6446 76.3881 39.6921V42.3781C76.3881 42.4256 76.3692 42.4712 76.3356 42.5048C76.302 42.5384 76.2564 42.5572 76.2089 42.5572H75.5175C75.47 42.5572 75.4244 42.5384 75.3908 42.5048C75.3572 42.4712 75.3383 42.4256 75.3383 42.3781V36.0879C75.3383 36.0403 75.3572 35.9948 75.3908 35.9612C75.4244 35.9276 75.47 35.9087 75.5175 35.9087H76.2089C76.2564 35.9087 76.302 35.9276 76.3356 35.9612C76.3692 35.9948 76.3881 36.0403 76.3881 36.0879V38.389C76.3881 38.4365 76.407 38.482 76.4406 38.5156C76.4742 38.5492 76.5197 38.5681 76.5673 38.5681Z" fill="#002349"/>
<path d="M88.9857 37.9516V42.3844C88.9857 42.4076 88.9811 42.4306 88.9721 42.452C88.9632 42.4734 88.95 42.4928 88.9335 42.5091C88.9169 42.5254 88.8973 42.5382 88.8758 42.5468C88.8542 42.5555 88.8312 42.5597 88.808 42.5593L88.2159 42.551C88.1942 42.5505 88.1731 42.5433 88.1555 42.5303C88.138 42.5172 88.1248 42.499 88.1179 42.4782C88.0694 42.3335 88.0451 42.2052 88.0451 42.0933C88.0414 40.1122 88.04 38.1652 88.0409 36.2523C88.041 36.1767 88.0646 36.1031 88.1084 36.0415C88.1522 35.9799 88.2142 35.9336 88.2856 35.9088C88.3569 35.884 88.4343 35.8821 88.5068 35.9033C88.5794 35.9244 88.6435 35.9677 88.6904 36.027L92.198 40.4892C92.2036 40.4961 92.2112 40.5011 92.2198 40.5035C92.2283 40.5059 92.2374 40.5057 92.2458 40.5028C92.2542 40.4999 92.2615 40.4945 92.2667 40.4873C92.2719 40.4801 92.2748 40.4715 92.275 40.4626V36.0802C92.2751 36.0554 92.2826 36.0313 92.2966 36.011C92.3106 35.9908 92.3304 35.9753 92.3534 35.9668C92.6128 35.8697 92.8731 35.8702 93.1344 35.9682C93.1599 35.9776 93.1818 35.9946 93.1973 36.0169C93.2128 36.0391 93.2212 36.0656 93.2212 36.0928C93.2193 38.1344 93.2189 40.1719 93.2198 42.2052C93.2198 42.6405 92.7341 42.7119 92.5214 42.3984C92.4588 42.3069 92.4243 42.257 92.4178 42.2486C91.2915 40.8135 90.1629 39.376 89.0319 37.9362C89.0284 37.9321 89.0236 37.9291 89.0184 37.9276C89.0131 37.9261 89.0076 37.9262 89.0025 37.9279C88.9975 37.9296 88.9931 37.9328 88.9901 37.937C88.9871 37.9412 88.9856 37.9463 88.9857 37.9516Z" fill="#002349"/>
<path d="M95.3494 35.9102H94.7307C94.6117 35.9102 94.5152 36.0067 94.5152 36.1257V42.3404C94.5152 42.4594 94.6117 42.5559 94.7307 42.5559H95.3494C95.4685 42.5559 95.565 42.4594 95.565 42.3404V36.1257C95.565 36.0067 95.4685 35.9102 95.3494 35.9102Z" fill="#002349"/>
<path d="M110.471 41.6125H113.137C113.167 41.6124 113.197 41.6206 113.222 41.6361C113.248 41.6517 113.269 41.674 113.283 41.7006C113.419 41.9582 113.421 42.2195 113.289 42.4845C113.278 42.5063 113.262 42.5247 113.241 42.5376C113.22 42.5505 113.197 42.5573 113.172 42.5572H109.561C109.506 42.5572 109.452 42.5351 109.413 42.4958C109.373 42.4564 109.351 42.403 109.351 42.3473V36.1354C109.351 36.0753 109.375 36.0176 109.418 35.9751C109.461 35.9326 109.519 35.9087 109.579 35.9087H110.191C110.247 35.9087 110.3 35.9308 110.34 35.9702C110.379 36.0096 110.401 36.063 110.401 36.1186V41.5425C110.401 41.5891 110.424 41.6125 110.471 41.6125Z" fill="#002349"/>
<path d="M134.109 40.5164C134.145 38.7098 134.149 37.3022 134.12 36.2935C134.103 35.7644 134.73 35.8302 134.998 35.9883C135.02 36.0011 135.038 36.0196 135.051 36.042C135.064 36.0643 135.07 36.0897 135.07 36.1157V42.2744C135.07 42.3476 135.044 42.4186 134.997 42.4746C134.95 42.5307 134.884 42.5684 134.811 42.5809C134.643 42.6098 134.486 42.53 134.34 42.3416C133.245 40.9381 132.103 39.4857 130.915 37.9843C130.862 37.919 130.836 37.9278 130.836 38.0109V42.3933C130.836 42.4172 130.831 42.4408 130.822 42.4626C130.812 42.4845 130.798 42.5041 130.781 42.5203C130.763 42.5365 130.742 42.5489 130.719 42.5567C130.697 42.5644 130.673 42.5674 130.649 42.5655L130.076 42.5193C129.955 42.5091 129.894 42.4433 129.894 42.322L129.89 36.2221C129.89 36.1788 129.899 36.1359 129.916 36.0961C129.933 36.0564 129.958 36.0205 129.989 35.9907C130.021 35.961 130.058 35.938 130.099 35.9231C130.139 35.9083 130.183 35.9019 130.226 35.9044C130.397 35.9146 130.528 35.9781 130.621 36.0947C131.782 37.5625 132.931 39.0411 134.067 40.5303C134.094 40.5658 134.108 40.5611 134.109 40.5164Z" fill="#002349"/>
<path d="M138.955 36.9235V42.3641C138.955 42.4153 138.935 42.4644 138.899 42.5007C138.863 42.5369 138.814 42.5572 138.763 42.5572H138.097C138.046 42.5572 137.997 42.5369 137.961 42.5007C137.925 42.4644 137.905 42.4153 137.905 42.3641V36.9235C137.905 36.9049 137.898 36.8871 137.885 36.874C137.871 36.8609 137.854 36.8535 137.835 36.8535H135.94C135.884 36.8535 135.829 36.8348 135.785 36.8003C135.74 36.7659 135.708 36.7177 135.694 36.6631C135.633 36.4326 135.643 36.2078 135.723 35.9885C135.732 35.965 135.747 35.9447 135.768 35.9305C135.788 35.9162 135.813 35.9086 135.838 35.9087H140.984C141.04 35.9087 141.093 35.9308 141.133 35.9702C141.172 36.0096 141.194 36.063 141.194 36.1186V36.5903C141.194 36.6601 141.167 36.7271 141.118 36.7764C141.069 36.8258 141.002 36.8535 140.933 36.8535H139.025C138.978 36.8535 138.955 36.8768 138.955 36.9235Z" fill="#002349"/>
<path d="M162.189 36.9263V42.3641C162.189 42.4153 162.169 42.4644 162.133 42.5007C162.097 42.5369 162.049 42.5572 161.998 42.5572H161.331C161.281 42.5572 161.232 42.5369 161.196 42.5007C161.16 42.4644 161.14 42.4153 161.14 42.3641V36.9235C161.14 36.9049 161.132 36.8871 161.119 36.874C161.106 36.8609 161.088 36.8535 161.07 36.8535H159.169C159.098 36.8535 159.031 36.8257 158.98 36.7761C158.93 36.7265 158.902 36.6592 158.902 36.5889L158.899 36.0893C158.899 36.0414 158.918 35.9954 158.951 35.9616C158.985 35.9277 159.03 35.9087 159.078 35.9087H164.257C164.281 35.9087 164.305 35.9155 164.326 35.9284C164.347 35.9412 164.364 35.9596 164.374 35.9815C164.463 36.155 164.517 36.8563 164.183 36.8535C163.543 36.8488 162.901 36.8498 162.258 36.8563C162.212 36.8572 162.189 36.8805 162.189 36.9263Z" fill="#002349"/>
<path d="M165.89 35.9087H165.277C165.156 35.9087 165.059 36.0065 165.059 36.127V42.3389C165.059 42.4595 165.156 42.5572 165.277 42.5572H165.89C166.011 42.5572 166.108 42.4595 166.108 42.3389V36.127C166.108 36.0065 166.011 35.9087 165.89 35.9087Z" fill="#002349"/>
<path d="M168.208 37.9536V42.4088C168.208 42.4295 168.204 42.4499 168.196 42.4689C168.188 42.4878 168.176 42.505 168.161 42.5192C168.146 42.5335 168.129 42.5446 168.109 42.5518C168.09 42.5591 168.069 42.5623 168.049 42.5614L167.408 42.5348C167.369 42.533 167.332 42.5163 167.305 42.4881C167.278 42.46 167.264 42.4225 167.264 42.3836V36.2264C167.264 36.1527 167.287 36.081 167.329 36.021C167.372 35.9611 167.433 35.916 167.502 35.8919C167.572 35.8679 167.647 35.8662 167.718 35.887C167.788 35.9078 167.851 35.9501 167.896 36.008L171.415 40.48C171.421 40.4877 171.429 40.4932 171.439 40.496C171.448 40.4987 171.458 40.4984 171.467 40.4951C171.476 40.4919 171.484 40.4858 171.489 40.4778C171.495 40.4699 171.498 40.4603 171.498 40.4506V36.0234C171.498 35.9958 171.508 35.9693 171.528 35.9497C171.547 35.93 171.574 35.9188 171.601 35.9184L172.234 35.917C172.37 35.917 172.438 35.9851 172.438 36.1214C172.445 38.1771 172.445 40.2141 172.438 42.2325C172.438 42.4863 172.323 42.6052 172.091 42.5894C171.894 42.5754 171.772 42.4032 171.659 42.259C170.522 40.8136 169.385 39.3738 168.249 37.9396C168.246 37.9357 168.242 37.9327 168.238 37.9313C168.233 37.9298 168.228 37.9299 168.223 37.9314C168.219 37.933 168.215 37.936 168.212 37.94C168.209 37.944 168.208 37.9488 168.208 37.9536Z" fill="#002349"/>
<path d="M54.8721 39.3736L53.0665 39.3799C52.9204 39.3804 52.8024 39.4993 52.8029 39.6454L52.8038 39.9197C52.8043 40.0658 52.9232 40.1839 53.0693 40.1834L54.8749 40.1771C55.021 40.1765 55.139 40.0577 55.1385 39.9116L55.1375 39.6373C55.137 39.4911 55.0182 39.3731 54.8721 39.3736Z" fill="#002349"/>
<path d="M4.25566 10.2078L0.24409 6.21556C0.134695 6.10669 0.211795 5.91992 0.366132 5.91992H5.88204C6.00295 5.91992 6.08657 6.04079 6.04394 6.15394L4.5396 10.1462C4.49534 10.2637 4.34464 10.2964 4.25566 10.2078Z" fill="#736960"/>
<path d="M4.13912 16.7129L8.12311 6.03247C8.14835 5.96479 8.21298 5.91992 8.28521 5.91992H12.9545C13.0753 5.91992 13.1589 6.04049 13.1166 6.15357L7.88956 20.1201C7.84599 20.2365 7.6975 20.2704 7.60777 20.1843L4.18147 16.8983C4.13164 16.8505 4.11499 16.7776 4.13912 16.7129Z" fill="#A6192E"/>
<path d="M20.3076 5.91992H15.5734C15.5011 5.91992 15.4364 5.9649 15.4112 6.03268L7.49033 27.3549C7.46664 27.4186 7.48252 27.4904 7.5309 27.5382L10.9593 30.9265C11.0486 31.0147 11.1991 30.9815 11.243 30.864L20.4697 6.15345C20.5119 6.04038 20.4283 5.91992 20.3076 5.91992Z" fill="#002349"/>
</svg>
