<?xml version="1.0" encoding="utf-8"?>
<!-- Generator: Adobe Illustrator 26.0.0, SVG Export Plug-In . SVG Version: 6.00 Build 0)  -->
<svg version="1.1" id="Layer_1" xmlns="http://www.w3.org/2000/svg" xmlns:xlink="http://www.w3.org/1999/xlink" x="0px" y="0px"
	 viewBox="0 0 225.4 250.6" style="enable-background:new 0 0 225.4 250.6;" xml:space="preserve">
<style type="text/css">
	.st0{fill-rule:evenodd;clip-rule:evenodd;fill:#00A551;}
</style>
<path class="st0" d="M124.9,38.1h-2.6h-0.4c-0.2,0-0.3,0-0.3,0c-0.2,0-0.3,0-0.5,0.1c-0.1,0-0.4,0.1-0.6,0.3
	c-0.2,0.1-0.4,0.3-0.5,0.4c0,0-0.1,0.3-0.3,0.6l-0.1-0.3l0-0.3c0-0.2,0.1-0.6,0.3-1c0.3-0.4,0.8-0.7,1.5-0.9l-0.1-0.1
	c-0.3-0.1-0.6-0.4-0.8-0.7c-0.3-0.4-0.4-0.7-0.4-1V35v-0.1l0.1-0.2c0-0.1,0.1-0.3,0.2-0.4c0.2-0.2,0.5-0.5,1-0.7h0.1l0.3,0
	c0.1,0,0.2,0,0.3,0l0.3-0.1c0.1,0,0.2,0,0.3-0.1c0.3-0.1,0.5-0.2,0.6-0.5c0-0.1,0.1-0.2,0.1-0.3v-0.1c0,0,0-0.1,0-0.1
	c0.2,0.2,0.3,0.5,0.3,0.8c0,0.1,0,0.2,0,0.3c0,0.1-0.1,0.2-0.1,0.2c0,0.1-0.1,0.2-0.1,0.2c0,0.1-0.1,0.1-0.2,0.2l0.1,0.1l0.1,0.1
	l0.1,0.2l0,0.3c0,0-0.1,0.2-0.2,0.4c-0.1-0.1-0.3-0.2-0.5-0.3c-0.2-0.1-0.4-0.1-0.6-0.1c-0.3,0-0.6,0.1-0.8,0.4l-0.1,0.2l-0.1,0.2
	c0,0.3,0.2,0.6,0.6,0.9l0.6,0.3c0.2,0.1,0.4,0.1,0.7,0.1h1.8V38.1z M220.8,216.9c-30.1-0.4-56.4-17.3-71-42.3v42.3h-48.1v-45.7
	l-48.1-54.4v100H5.5V42.7h48.1v0.8h0.2l47.9,54.1V42.7h48.1V85c14.6-25,40.9-41.9,71-42.3v47.8c-20.4,0.6-36.8,18-36.8,39.3
	c0,21.2,16.4,38.6,36.8,39.3V216.9z M27.7,7.5l-2.5-2.2l-2.6,2.2L20,9.8l-2.6-2.3L20,5.3l2.6,2.2l2.6,2.2L27.7,7.5z M216.1,5.2
	l-3,2.5l-3-2.5l3-2.6L216.1,5.2z M219.9,24.8h-9.1h-2.6h-6.4V6L200,5.1l5.4-4.6v20.9h2.8h2.6h5.2v-4.7l-1.5-0.9l5.4-4.6V24.8z
	 M194.5,24.8h-7.7h-4.1h-1l-0.1,0.5c-0.4,2.2-1.2,3.9-2.4,5.1c-1.4,1.5-3.4,2.2-5.9,2.2c-2.3,0-4.4-0.6-6.2-1.9c-2-1.3-3-3-3-5.1
	l0-0.9l0.2-0.7c0.1-0.3,0.3-0.9,0.7-1.8l0,1.2c0,1.4,0.7,2.7,2.2,3.9c1.5,1.2,3.1,1.8,5,1.8h0.4h0.3l0.3-0.1c0.2,0,0.3,0,0.4,0
	c0.1,0,0.2,0,0.4-0.1c1.8-0.5,3.1-1.4,3.8-2.9l0.5-1.8l0.1-1.2v-1.4v-0.3V7.8l-2.2-0.6l5.8-4.9l0,19h0.8h4h3.8v-4.7l-1.5-0.9
	l5.4-4.6V24.8z M194.5,31.4l-2.6-2.2l-2.6,2.3l-2.6,2.3l-2.6-2.3l2.6-2.2l2.6,2.2l2.6,2.2L194.5,31.4z M140.1,5.2l1.8,0.9v15.3H133
	l1.8-1.5V0.5L129.7,5l1.4,1.9V19l-3.2,2.7l-3.2-2.8v-12l1.6-1.9l-5.2-4.5v19.4l4.5,3.8l-5.4,4.6l7.4,6.3l7.7-6.6l-3.8-3.2h10.2v0
	h3.7V0.5L140.1,5.2z M131.1,28.2l-3.2-2.7l-3.3,2.9l3.2,2.7L131.1,28.2z M112.8,5.2l-3,2.5l-3-2.5l3-2.6L112.8,5.2z M116.6,24.8
	h-7.6h-4.1H80.4h-2.7h-6.4V6l-1.8-0.9L75,0.5v20.9h2.7h2.7h4.2v-1.9l-1.8-0.9l5.5-4.6v7.4h4.8v-3.6l-1.8-0.9l5.4-4.6v9.1h4.5v-5.1
	l-1.7-0.9l5.2-4.6v10.6h0.2h4.1h3.7v-4.7l-1.5-0.9l5.4-4.6V24.8z M96.6,3l-2.5,2.1L91.6,3l2.5-2.2L96.6,3z M98.8,7.2l-2.4-2L94,7.3
	l-2.4,2.1l-2.4-2.2l2.4-2.1L94,7.3l2.4,2.1L98.8,7.2z M64.5,24.2h-6.6h-0.9c-0.5,0-0.8,0-0.8,0c-0.4,0-0.8,0.1-1.2,0.2
	c-0.4,0.1-0.9,0.3-1.6,0.8c-0.5,0.3-1,0.7-1.3,1.1c-0.1,0.1-0.4,0.6-0.8,1.6L50.9,27l-0.1-0.7c0-0.6,0.3-1.5,0.9-2.5
	c0.7-1,2-1.8,3.8-2.4l-0.3-0.2c-0.7-0.3-1.5-1-2.2-1.9c-0.7-0.9-1-1.8-1-2.6v-0.6V16l0.2-0.4c0.1-0.3,0.3-0.6,0.6-1
	c0.5-0.6,1.3-1.2,2.6-1.7h0.3l0.8,0c0.3,0,0.5,0,0.8-0.1l0.8-0.1c0.3,0,0.6-0.1,0.8-0.2c0.8-0.2,1.4-0.6,1.6-1.3
	c0.1-0.3,0.1-0.6,0.1-0.9v-0.2c0-0.1,0-0.2,0-0.2c0.5,0.6,0.8,1.3,0.8,2c0,0.3,0,0.6-0.1,0.7c0,0.2-0.1,0.4-0.3,0.6
	c-0.1,0.2-0.2,0.4-0.4,0.6c-0.1,0.2-0.3,0.3-0.6,0.5l0.3,0.2l0.2,0.2l0.2,0.5l0.1,0.7c0,0.1-0.1,0.4-0.4,1c-0.4-0.3-0.8-0.6-1.2-0.8
	c-0.5-0.2-1-0.3-1.6-0.3c-0.9,0-1.6,0.3-2.1,1l-0.2,0.5l-0.2,0.5c0,0.6,0.5,1.4,1.5,2.3l1.5,0.8c0.5,0.2,1.1,0.3,1.7,0.3h4.7V24.2z
	 M48.2,5.2l-1.8,0.9v18.7h-3.7V0.5L48.2,5.2z M36.2,24.8H5.8l7.7-5.9v2.4h18.8v-2.8l-1.6-0.9l5.4-4.6V24.8z M18.4,249.7h-2.9
	L7,232.4v17.3H4.6v-20.1h3.6l7.7,15.9v-15.9h2.4V249.7z M211,249.7V232h-6.5v-2.4h15.5v2.4h-6.5v17.7H211z M198.2,250.1
	c-1.3,0-2.4-0.2-3.5-0.7c-1.1-0.4-2-1.1-2.7-2c-0.8-0.9-1.4-2-1.8-3.3c-0.4-1.3-0.6-2.8-0.6-4.5c0-1.7,0.2-3.1,0.6-4.4
	c0.4-1.2,1-2.3,1.8-3.3c0.8-0.9,1.7-1.6,2.7-2.1c1.1-0.5,2.2-0.7,3.5-0.7c0.6,0,1.3,0.1,1.8,0.1c0.6,0.1,1.1,0.2,1.6,0.4
	c0.4,0.1,0.8,0.3,1.3,0.5c0.4,0.2,0.9,0.4,1.3,0.7v3.2H204c-0.2-0.2-0.5-0.5-0.9-0.8c-0.4-0.3-0.8-0.6-1.3-0.9
	c-0.5-0.3-1-0.5-1.6-0.7c-0.6-0.2-1.2-0.3-2-0.3c-0.8,0-1.6,0.2-2.3,0.5c-0.7,0.3-1.4,0.9-1.9,1.6c-0.5,0.7-1,1.5-1.3,2.6
	c-0.3,1-0.5,2.2-0.5,3.5c0,1.4,0.2,2.6,0.5,3.6c0.3,1,0.8,1.8,1.3,2.5c0.5,0.7,1.2,1.2,1.9,1.5c0.7,0.3,1.5,0.5,2.3,0.5
	c0.7,0,1.4-0.1,2-0.3c0.6-0.2,1.2-0.4,1.7-0.7c0.5-0.3,0.9-0.6,1.2-0.9c0.3-0.3,0.6-0.5,0.8-0.7h0.2v3.2c-0.4,0.2-0.8,0.4-1.2,0.6
	c-0.4,0.2-0.8,0.4-1.4,0.6c-0.6,0.2-1.1,0.3-1.6,0.4C199.6,250,198.9,250.1,198.2,250.1z M180,250.1c-1.1,0-2.1-0.2-3-0.5
	c-0.8-0.3-1.6-0.8-2.2-1.4c-0.7-0.7-1.1-1.5-1.4-2.5c-0.3-1-0.4-2.2-0.4-3.6v-12.5h2.6v12.5c0,0.9,0.1,1.7,0.2,2.3
	c0.1,0.6,0.3,1.2,0.7,1.7c0.3,0.5,0.8,1,1.4,1.2c0.6,0.3,1.3,0.4,2.2,0.4c0.8,0,1.5-0.1,2.1-0.4c0.6-0.3,1.1-0.7,1.5-1.2
	c0.3-0.5,0.5-1.1,0.6-1.7c0.1-0.6,0.2-1.4,0.2-2.3v-12.6h2.6v12.5c0,1.4-0.1,2.6-0.4,3.6c-0.3,1-0.8,1.8-1.4,2.5
	c-0.6,0.6-1.3,1.1-2.1,1.4C182.2,250,181.2,250.1,180,250.1z M171.8,249.7h-3.3l-6.1-8h-2.9v8h-2.6v-20.1h5c1.1,0,2,0.1,2.8,0.2
	c0.7,0.1,1.5,0.4,2.1,0.9c0.7,0.5,1.2,1,1.6,1.7c0.4,0.7,0.6,1.6,0.6,2.6c0,1.5-0.4,2.7-1.1,3.7c-0.7,1-1.7,1.7-2.9,2.2L171.8,249.7
	z M166.3,235.2c0-0.6-0.1-1.1-0.3-1.6c-0.2-0.5-0.5-0.8-0.9-1.1c-0.4-0.2-0.8-0.4-1.3-0.5c-0.5-0.1-1.1-0.2-1.8-0.2h-2.5v7.6h2.2
	c0.7,0,1.4-0.1,2-0.2c0.6-0.1,1.1-0.4,1.5-0.8c0.4-0.4,0.6-0.8,0.8-1.4C166.2,236.6,166.3,235.9,166.3,235.2z M145.9,249.7V232h-6.5
	v-2.4h15.5v2.4h-6.5v17.7H145.9z M132.1,250.1c-1.4,0-2.6-0.2-3.6-0.5c-1-0.3-1.9-0.7-2.8-1.1v-3.3h0.2c0.8,0.8,1.8,1.5,2.9,1.9
	c1.1,0.5,2.1,0.7,3.1,0.7c1.4,0,2.5-0.3,3.2-0.9c0.7-0.6,1.1-1.4,1.1-2.4c0-0.8-0.2-1.5-0.6-2c-0.4-0.5-1-0.9-1.8-1.1
	c-0.6-0.2-1.1-0.3-1.6-0.4c-0.5-0.1-1.1-0.3-1.9-0.5c-0.7-0.2-1.3-0.4-1.8-0.7c-0.5-0.3-1-0.6-1.4-1.1c-0.4-0.4-0.7-1-0.9-1.6
	c-0.2-0.6-0.3-1.3-0.3-2.1c0-1.6,0.6-3,1.8-4.1c1.2-1.1,2.8-1.7,4.7-1.7c1.1,0,2.1,0.1,3.1,0.3c1,0.2,1.8,0.5,2.7,1v3.2h-0.2
	c-0.6-0.6-1.4-1.1-2.4-1.5c-1-0.4-2-0.7-3-0.7c-1.2,0-2.1,0.3-2.9,0.9c-0.7,0.6-1.1,1.3-1.1,2.3c0,0.9,0.2,1.5,0.6,2
	c0.4,0.5,1.1,0.9,1.9,1.1c0.5,0.2,1.2,0.3,2,0.5c0.8,0.2,1.4,0.4,2,0.5c1.3,0.4,2.3,1.1,2.9,1.9c0.6,0.9,0.9,1.9,0.9,3.2
	c0,0.8-0.2,1.6-0.5,2.3c-0.3,0.8-0.7,1.4-1.3,1.9c-0.6,0.6-1.3,1-2.1,1.3C134.2,249.9,133.2,250.1,132.1,250.1z M122.8,249.7h-2.9
	l-8.5-17.3v17.3H109v-20.1h3.6l7.7,15.9v-15.9h2.4V249.7z M103.9,231.9c0.7,0.9,1.3,2,1.7,3.3c0.4,1.3,0.6,2.8,0.6,4.5
	c0,1.6-0.2,3.1-0.6,4.4c-0.4,1.3-1,2.4-1.7,3.3c-0.8,0.9-1.7,1.6-2.7,2.1c-1,0.4-2.2,0.7-3.5,0.7c-1.3,0-2.5-0.2-3.5-0.7
	c-1-0.5-1.9-1.1-2.7-2.1c-0.7-0.9-1.3-2-1.7-3.3c-0.4-1.3-0.6-2.8-0.6-4.4c0-1.7,0.2-3.2,0.6-4.5c0.4-1.3,1-2.4,1.7-3.3
	c0.7-0.9,1.6-1.6,2.7-2c1-0.5,2.2-0.7,3.5-0.7c1.3,0,2.5,0.2,3.5,0.7C102.3,230.4,103.2,231,103.9,231.9z M103.6,239.6
	c0-1.3-0.1-2.5-0.4-3.5c-0.3-1-0.7-1.9-1.2-2.6c-0.5-0.7-1.1-1.2-1.8-1.6c-0.7-0.3-1.5-0.5-2.4-0.5c-0.9,0-1.7,0.2-2.4,0.5
	c-0.7,0.3-1.3,0.9-1.8,1.6c-0.5,0.7-0.9,1.5-1.2,2.6c-0.3,1-0.4,2.2-0.4,3.5c0,2.6,0.5,4.7,1.6,6.1c1.1,1.4,2.5,2.1,4.3,2.1
	c1.8,0,3.2-0.7,4.3-2.1C103,244.3,103.6,242.3,103.6,239.6z M81.9,250.1c-1.3,0-2.4-0.2-3.5-0.7c-1.1-0.4-2-1.1-2.7-2
	c-0.8-0.9-1.4-2-1.8-3.3c-0.4-1.3-0.6-2.8-0.6-4.5c0-1.7,0.2-3.1,0.6-4.4c0.4-1.2,1-2.3,1.8-3.3c0.8-0.9,1.7-1.6,2.7-2.1
	c1.1-0.5,2.2-0.7,3.5-0.7c0.6,0,1.2,0.1,1.8,0.1c0.6,0.1,1.1,0.2,1.6,0.4c0.4,0.1,0.8,0.3,1.3,0.5c0.4,0.2,0.9,0.4,1.3,0.7v3.2h-0.2
	c-0.2-0.2-0.5-0.5-0.9-0.8c-0.4-0.3-0.8-0.6-1.3-0.9c-0.5-0.3-1-0.5-1.6-0.7c-0.6-0.2-1.2-0.3-2-0.3c-0.8,0-1.6,0.2-2.3,0.5
	c-0.7,0.3-1.4,0.9-1.9,1.6c-0.5,0.7-1,1.5-1.3,2.6c-0.3,1-0.5,2.2-0.5,3.5c0,1.4,0.2,2.6,0.5,3.6c0.3,1,0.8,1.8,1.3,2.5
	c0.5,0.7,1.2,1.2,1.9,1.5c0.7,0.3,1.5,0.5,2.3,0.5c0.7,0,1.4-0.1,2-0.3c0.6-0.2,1.2-0.4,1.7-0.7c0.5-0.3,0.9-0.6,1.2-0.9
	c0.3-0.3,0.6-0.5,0.8-0.7h0.2v3.2c-0.4,0.2-0.8,0.4-1.2,0.6c-0.4,0.2-0.8,0.4-1.4,0.6c-0.6,0.2-1.1,0.3-1.6,0.4
	C83.3,250,82.7,250.1,81.9,250.1z M64.1,249.7H53v-20.1h2.6v17.7h8.6V249.7z M38.1,249.7v-20.1h12v2.4h-9.5v5.5h8.8v2.4h-8.8v7.5
	h9.5v2.4H38.1z M20.2,249.7l6.5-20.1h3.1l6.5,20.1h-2.7l-1.7-5.6h-7.4l-1.7,5.6H20.2z M31.2,241.8l-3-9.5l-3,9.5H31.2z"/>
</svg>
